<svg xmlns="http://www.w3.org/2000/svg" width="48.002" height="47.975" viewBox="0 0 48.002 47.975">
  <g>
    <path d="M19.476,12.885c3.321-3.3,11.187-1,18.706,5.065a18.792,18.792,0,0,0-.211-3.442,22.343,22.343,0,0,1-.049-7.232c.433-2.5.076-4.533-1.2-5.808S33.414-.164,30.915.269A22.337,22.337,0,0,1,23.684.22,20.465,20.465,0,0,0,6.215,6.214,20.464,20.464,0,0,0,.22,23.683a22.343,22.343,0,0,1,.05,7.232c-.433,2.5-.076,4.533,1.2,5.809s3.309,1.632,5.808,1.2a20.9,20.9,0,0,1,5.458-.17,30.484,30.484,0,0,0-.378-4.253A24.058,24.058,0,0,1,19.476,12.885Z" fill="#fddc85"/>
    <path d="M20.956,16a20.465,20.465,0,0,0-5.994,17.47,22.337,22.337,0,0,1,.049,7.231c-.433,2.5-.076,4.534,1.2,5.809s3.309,1.632,5.808,1.2a22.342,22.342,0,0,1,7.232.049,20.469,20.469,0,0,0,17.469-5.994Z" fill="#fddc85"/>
    <ellipse cx="33.841" cy="28.87" rx="8.309" ry="18.217" transform="translate(-10.503 32.385) rotate(-45)" fill="#e2e2e2"/>
    <g>
      <path d="M33.12,27.365l-.731-7.284a.506.506,0,0,0-.223-.393,15.383,15.383,0,0,0-6.085-2.364c-.031,0-.062-.005-.092-.005a1.449,1.449,0,0,0-1.187.869c-.065.137-.255.6.027.887Z" fill="#ffbd66"/>
      <path d="M24.033,19.871a.536.536,0,0,0-.395-.15,1.211,1.211,0,0,0-.492.123,1.406,1.406,0,0,0-.864,1.278,15.383,15.383,0,0,0,2.364,6.085.5.5,0,0,0,.392.223l7.286.731Z" fill="#ffbd66"/>
      <path d="M39.3,28.862a1.438,1.438,0,0,0,1.276-.806c.073-.135.289-.6.028-.917-.737-.9-1.541-1.79-2.387-2.637a35.449,35.449,0,0,0-2.636-2.387c-.318-.26-.784-.045-.917.028a1.438,1.438,0,0,0-.8,1.277l.281,2.8.216,2.144,1.971.2Z" fill="#ffbd66"/>
      <path d="M33.323,29.392l-4.942-.5c-.031,0-.061-.005-.091-.005A1.482,1.482,0,0,0,27.1,29.7c-.073.135-.289.6-.028.918a35.491,35.491,0,0,0,2.387,2.636c.846.846,1.732,1.649,2.635,2.388.319.258.783.043.918-.029a1.433,1.433,0,0,0,.8-1.277V34.32Z" fill="#ffbd66"/>
      <path d="M34.555,30.391l.384,3.831h0l.347,3.453a.5.5,0,0,0,.222.393h0a15.4,15.4,0,0,0,6.086,2.364,1.426,1.426,0,0,0,1.278-.864c.064-.137.254-.605-.028-.887Z" fill="#ffbd66"/>
      <path d="M43.028,30.549a.5.5,0,0,0-.393-.223l-3.452-.346h0l-1.46-.147-2.37-.237,8.29,8.29c.281.282.75.092.887.027a1.4,1.4,0,0,0,.864-1.277A15.375,15.375,0,0,0,43.028,30.549Z" fill="#ffbd66"/>
    </g>
    <ellipse cx="7.506" cy="14.491" rx="6.609" ry="3.141" transform="translate(-8.795 15.263) rotate(-65.329)" fill="#e2e2e2"/>
  </g>
</svg>
